<?xml version="1.0" ?><svg style="enable-background:new 0 0 64 64;" version="1.1" viewBox="0 0 64 64" xml:space="preserve" xmlns="http://www.w3.org/2000/svg" xmlns:xlink="http://www.w3.org/1999/xlink"><style type="text/css">
	.st0{display:none;}
</style><g class="st0" id="Grid"/><g id="Layer_2"/><g id="Layer_3"/><g id="Layer_4"/><g id="Layer_5"/><g id="Layer_6"/><g id="Layer_7"/><g id="Layer_8"/><g id="Layer_9"/><g id="Layer_10"/><g id="Layer_11"/><g id="Layer_12"/><g id="Layer_13"><path d="M61.8,19.6c-0.2-0.2-0.4-0.4-0.7-0.4c-0.1,0-0.3-0.1-0.4,0c-3.9,0.8-7.9,0-11.2-2.2c-3.2-2.2-5.5-5.4-6.3-9.2l1.6-3.8   c0.2-0.5,0-1.1-0.5-1.3c-0.5-0.2-1.1,0-1.3,0.5l-1.6,3.8C38.1,9,34.2,9.7,30.4,9c-3.9-0.8-7.3-3.1-9.5-6.4   c-0.1-0.1-0.2-0.2-0.4-0.3C20.3,2.1,20,2,19.8,2.1c-0.5,0.1-0.9,0.6-0.8,1.2c1.6,8-3.5,15.7-11.4,17.5l-3.6-1.5   c-0.5-0.2-1.1,0-1.3,0.5c-0.2,0.5,0,1.1,0.5,1.3l3.6,1.5c2.1,3.3,2.8,7.1,2,11C8,37.5,5.8,40.8,2.5,43C2,43.3,1.9,44,2.2,44.4   c0.2,0.2,0.4,0.4,0.7,0.4c0.2,0,0.3,0.1,0.5,0c8-1.6,15.7,3.5,17.5,11.4l-1.6,3.8c-0.2,0.5,0,1.1,0.5,1.3c0.1,0.1,0.3,0.1,0.4,0.1   c0.4,0,0.8-0.2,0.9-0.6l1.6-3.8c3.3-2.1,7.2-2.8,11-2.1c3.9,0.8,7.3,3.1,9.5,6.4c0.1,0.1,0.2,0.2,0.3,0.3c0,0,0,0,0.1,0   c0,0,0,0,0.1,0c0.2,0.1,0.3,0.2,0.5,0.2c0.1,0,0.1,0,0.2,0c0.5-0.1,0.9-0.6,0.8-1.2c-0.8-3.9,0-7.9,2.2-11.2   c2.2-3.2,5.4-5.5,9.2-6.3l3.7,1.5c0.1,0.1,0.3,0.1,0.4,0.1c0.4,0,0.8-0.2,0.9-0.6c0.2-0.5,0-1.1-0.5-1.3l-3.7-1.5   c-2.1-3.3-2.8-7.1-2-11c0.8-3.9,3.1-7.3,6.4-9.5C62,20.6,62.1,20,61.8,19.6z M48.4,18.6c2.2,1.4,4.6,2.3,7,2.7l-2.5,1   c-5.7,1.1-11.1-2.6-12.4-8.1l1.5-3.5C43.2,13.8,45.4,16.6,48.4,18.6z M32,29.4l-3-7.2c0.6,0.3,1.2,0.5,1.9,0.6   c0.6,0.1,1.1,0.2,1.7,0.2c0.7,0,1.4-0.1,2.1-0.3L32,29.4z M36.6,23.5c0.6,1.1,1.5,2.1,2.6,2.8c0.6,0.4,1.2,0.7,1.8,0.9l-7.2,3   L36.6,23.5z M27.1,22.9l3,7.3l-6.7-2.8c1.1-0.6,2.1-1.5,2.8-2.6C26.6,24.2,26.9,23.5,27.1,22.9z M29.4,32l-7.3,3   c0.9-1.8,1.1-3.9,0.6-5.8L29.4,32z M30.2,33.8l-2.8,6.7c-0.6-1.1-1.5-2.1-2.6-2.8c-0.6-0.4-1.2-0.7-1.8-0.9L30.2,33.8z M32,34.6   l3,7.2c-1.8-0.8-3.8-1-5.7-0.5L32,34.6z M36.8,41.1l-3-7.2l6.7,2.8c-1.1,0.6-2.1,1.5-2.8,2.6C37.4,39.8,37.1,40.4,36.8,41.1z    M34.6,32l7.3-3c-0.9,1.8-1.1,3.8-0.6,5.8L34.6,32z M45,25.6c-1.6,0.3-3.3,0-4.6-0.9c-1.3-0.9-2.2-2.2-2.6-3.7l1.6-4   c1.7,3.7,5,6.4,9,7.2L45,25.6z M35.9,20.1c-1.4,0.8-2.9,1.1-4.5,0.8c-1.6-0.3-3-1.3-3.9-2.6L26,14.9c2.1,1.4,4.5,2.1,7,2.1   c1.5,0,3-0.3,4.5-0.8L35.9,20.1z M25.5,18.8C25.5,18.9,25.5,18.9,25.5,18.8c0.7,3.4-1.4,6.6-4.7,7.4l-4-1.7c2.2-1,4-2.5,5.4-4.6   c0.9-1.4,1.6-2.9,1.9-4.5L25.5,18.8z M20.1,28.1c1.7,2.9,0.9,6.6-1.9,8.5c0,0,0,0-0.1,0.1L14.8,38c2.3-3.4,2.8-7.7,1.3-11.6   L20.1,28.1z M19.1,38.4c1.6-0.3,3.3,0,4.6,1c1.3,0.9,2.2,2.2,2.6,3.7l-1.6,3.9c-1.7-3.7-5-6.4-9-7.2L19.1,38.4z M28.2,43.9   c2.8-1.7,6.6-0.9,8.4,1.8l1.4,3.3c-3.4-2.2-7.6-2.7-11.5-1.2L28.2,43.9z M38.5,45.1C38.5,45.1,38.5,45.1,38.5,45.1   c-0.3-1.7,0-3.4,0.9-4.8c0.9-1.3,2.2-2.2,3.7-2.6l4,1.7c-3.8,1.7-6.5,5.1-7.3,9.1L38.5,45.1z M43.9,35.9c-1.7-2.9-0.9-6.6,1.9-8.5   c0,0,0,0,0,0l3.3-1.4c-2.2,3.4-2.8,7.7-1.3,11.5L43.9,35.9z M33.4,11.3c2.3,0,4.6-0.5,6.7-1.4l-1.5,3.5c-4.9,3-11.3,1.7-14.5-3.1   l-1-2.5c2,1.5,4.3,2.6,6.9,3.1C31.1,11.2,32.3,11.3,33.4,11.3z M21.1,8.3l1,2.5c0,0,0,0.1,0,0.1c0.6,2.8,0,5.7-1.6,8   c-1.5,2.3-3.8,3.9-6.5,4.5L10.5,22C16.3,19.7,20.4,14.4,21.1,8.3z M9.7,23.8l3.6,1.5c3.1,4.9,1.7,11.4-3.2,14.6   c0,0-0.1,0.1-0.1,0.1l-2.5,1C11.3,36.2,12.2,29.6,9.7,23.8z M8.5,42.8l2.5-1c5.7-1.1,11.2,2.5,12.4,8.1L22,53.4   C19.8,47.6,14.6,43.6,8.5,42.8z M23.9,54.2l1.5-3.6c4.9-3,11.3-1.7,14.5,3l1,2.5C36.1,52.5,29.5,51.7,23.9,54.2z M45.6,48.4   c-1.5,2.2-2.4,4.7-2.7,7.3l-1-2.5c0,0,0-0.1,0-0.1c-1.1-5.7,2.5-11.3,8.1-12.5l3.6,1.5C50.3,43.3,47.5,45.5,45.6,48.4z M54.3,40.2   l-3.6-1.5c-1.5-2.3-2-5.1-1.4-7.8c0.6-2.8,2.2-5.2,4.6-6.8c0,0,0,0,0.1-0.1l2.5-1C52.7,27.8,51.8,34.5,54.3,40.2z"/></g><g id="Layer_14"/><g id="Layer_15"/><g id="Layer_16"/></svg>