<?xml version="1.0" ?><svg viewBox="0 0 64 64" xmlns="http://www.w3.org/2000/svg"><defs><style>.cls-1{fill:#748a95;}.cls-2{fill:#617880;}.cls-3{fill:#ebb87f;}.cls-4{fill:#efc89d;}.cls-5{fill:#172335;}</style></defs><g id="Dracula"><path class="cls-1" d="M19.91,41.79l-2.57,1.4a9,9,0,0,0-4.59,6.41l-.56,3.22A2.72,2.72,0,0,0,14.87,56H49.13a2.72,2.72,0,0,0,2.68-3.18l-.56-3.22a9,9,0,0,0-4.59-6.41l-2.57-1.4Z" id="path255279-9"/><path class="cls-2" d="M38,41.79l2.56,1.4a9,9,0,0,1,4.6,6.41l.56,3.22A2.73,2.73,0,0,1,43,56h6.11a2.72,2.72,0,0,0,2.68-3.18l-.56-3.22a9,9,0,0,0-4.59-6.41l-2.57-1.4Z" id="path311740"/><path class="cls-1" d="M43.77,27s7,1.72,1.34,12.92c-3.67,7.28-8.1,4.27-10.76,6a5,5,0,0,1-4.7,0c-2.66-1.7-7.09,1.31-10.76-6C13.23,28.72,20.23,27,20.23,27Z" id="path155417-4"/><path class="cls-2" d="M40.11,27s7,1.72,1.35,12.92c-3.68,7.28-8.11,4.27-10.76,6a2.9,2.9,0,0,1-.53.26,5,5,0,0,0,4.18-.26c2.66-1.7,7.09,1.31,10.76-6C50.77,28.72,43.77,27,43.77,27Z" id="path306409"/><path class="cls-3" d="M27.1,33.67v4.74a12.86,12.86,0,0,0,9.8,0V33.67Z" id="rect27794-0-20-9"/><path class="cls-3" d="M21.35,21.94l-2.52-4.58c-1.2-2.18-2.07-1.93-1.88.55.25,3.16.38,5.89.85,7.24.85,2.4,4.48,2,4.48,2l1.4-2.59Z" id="path151917-6"/><path class="cls-3" d="M42.65,21.94l2.52-4.58c1.2-2.18,2.07-1.93,1.88.55-.25,3.16-.38,5.89-.85,7.24-.85,2.4-4.48,2-4.48,2l-1.4-2.59Z" id="path152471-6"/><path class="cls-4" d="M21.35,21.94a19,19,0,0,0,.93,5.17C24,31.52,27.73,35.43,32,35.43s8-3.91,9.72-8.32a19,19,0,0,0,.93-5.17L40.06,12.6,25.91,11.44Z" id="path298145"/><path class="cls-3" d="M37.47,12.39a10.69,10.69,0,0,1,2.08,6.36c0,2.35-.16,6.18-1,8.36C37,31,34,34.42,30.4,35.24a7.14,7.14,0,0,0,1.6.19c4.27,0,8-3.91,9.72-8.32a19,19,0,0,0,.93-5.17L40.06,12.6Z" id="path302544"/><path class="cls-1" d="M32,8A10.75,10.75,0,0,0,21.25,18.75c0,.9,0,2,.1,3.19L23,21.22a2.13,2.13,0,0,0,1.1-1.93,2.62,2.62,0,0,1,2.35-2.83,4.76,4.76,0,0,1,3.49.95,3.45,3.45,0,0,0,4.2,0,4.76,4.76,0,0,1,3.49-.95,2.61,2.61,0,0,1,2.35,2.83A2.13,2.13,0,0,0,41,21.22l1.61.72c.08-1.17.1-2.29.1-3.19A10.75,10.75,0,0,0,32,8Z" id="path151032-2"/><path class="cls-2" d="M32,8a10.57,10.57,0,0,0-1.6.12,10.75,10.75,0,0,1,9.09,9.46,3.27,3.27,0,0,1,.45,1.71A2.13,2.13,0,0,0,41,21.22l1.61.72c.08-1.17.1-2.29.1-3.19A10.75,10.75,0,0,0,32,8Z" id="path302546"/><path class="cls-5" d="M36.18,28.48a1,1,0,0,0-1.11-.57,16.55,16.55,0,0,1-3.07.33,16.55,16.55,0,0,1-3.07-.33,1,1,0,0,0-1.11.57l-.7,1.57a1,1,0,1,0,1.83.81l.38-.85a19.1,19.1,0,0,0,5.34,0l.38.85a1,1,0,0,0,.91.59,1,1,0,0,0,.41-.08,1,1,0,0,0,.51-1.32Z"/><path class="cls-5" d="M14.24,57a4.46,4.46,0,0,0,.63,0H49.13a3.72,3.72,0,0,0,3.66-4.35l-.55-3.22a10,10,0,0,0-5.11-7.12l-1.68-.92c.19-.32.37-.65.55-1,2.36-4.67,2.92-8.42,1.67-11.13A5.78,5.78,0,0,0,46,27.08a3.52,3.52,0,0,0,1.16-1.6,28.32,28.32,0,0,0,.8-6.09l.11-1.4c.05-.66.2-2.66-1.13-3.06s-2.31,1.37-2.63,1.95l-.58,1.06a11.74,11.74,0,0,0-23.42,0l-.58-1.06c-.32-.58-1.3-2.35-2.63-1.95S15.9,17.33,16,18l.1,1.4a28.32,28.32,0,0,0,.8,6.09A3.52,3.52,0,0,0,18,27.08a5.78,5.78,0,0,0-1.69,2.17C15.08,32,15.64,35.71,18,40.38c.18.36.36.69.55,1l-1.68.92a10,10,0,0,0-5.11,7.12l-.55,3.22a3.72,3.72,0,0,0,3,4.3ZM32,38.38a11.88,11.88,0,0,1-3.9-.67V35.44a8.25,8.25,0,0,0,7.8,0v2.27A11.88,11.88,0,0,1,32,38.38Zm0-4c-4,0-7.27-3.86-8.79-7.68a16.08,16.08,0,0,1-.8-4.18l1-.42a3.13,3.13,0,0,0,1.69-2.83c0-1.45.81-1.76,1.5-1.86a3.73,3.73,0,0,1,2.76.78,4.44,4.44,0,0,0,5.36,0,3.73,3.73,0,0,1,2.76-.78c.69.1,1.48.41,1.5,1.86a3.13,3.13,0,0,0,1.69,2.83l1,.42a16.08,16.08,0,0,1-.8,4.18C39.27,30.56,36,34.42,32,34.42Zm14-16.58h0L46,19.24a28.59,28.59,0,0,1-.7,5.57,2.42,2.42,0,0,1-2.19,1.29,23.73,23.73,0,0,0,.56-3.87ZM32,9a9.76,9.76,0,0,1,9.75,9.75c0,.43,0,1,0,1.68l-.28-.12a1.19,1.19,0,0,1-.5-1,3.59,3.59,0,0,0-3.2-3.81,5.69,5.69,0,0,0-4.21,1.12,2.44,2.44,0,0,1-3.06,0,5.69,5.69,0,0,0-4.21-1.12,3.59,3.59,0,0,0-3.2,3.81,1.19,1.19,0,0,1-.5,1l-.28.12c0-.67,0-1.25,0-1.68A9.76,9.76,0,0,1,32,9ZM18,17.84l2.43,4.39a23.73,23.73,0,0,0,.56,3.87,3.65,3.65,0,0,1-.55-.08h0a2.08,2.08,0,0,1-1.64-1.21,28.47,28.47,0,0,1-.7-5.56L18,17.83Zm.18,12.28A3.88,3.88,0,0,1,20.31,28a8.35,8.35,0,0,0,1.32.11h0a16.46,16.46,0,0,0,4.46,6v2.65A11.76,11.76,0,0,1,23.74,35a1,1,0,0,0-1.42,0,1,1,0,0,0,0,1.41,13.71,13.71,0,0,0,19.36,0,1,1,0,0,0,0-1.41,1,1,0,0,0-1.42,0,11.76,11.76,0,0,1-2.36,1.81V34.13a16.46,16.46,0,0,0,4.46-6h0A8.33,8.33,0,0,0,43.68,28a3.89,3.89,0,0,1,2.19,2.09c1,2.1.38,5.34-1.65,9.35-2.25,4.45-4.63,4.6-6.94,4.75a7,7,0,0,0-3.47.83,4,4,0,0,1-3.62,0,7,7,0,0,0-3.47-.83c-2.31-.15-4.69-.3-6.94-4.75C17.75,35.46,17.18,32.22,18.13,30.12ZM13.18,53l.55-3.22a8,8,0,0,1,4.09-5.71l1.88-1A7.83,7.83,0,0,0,24.5,46a8.06,8.06,0,0,0-2.14,5.57,1,1,0,0,0,2,0,6.2,6.2,0,0,1,2.88-5.29,4.12,4.12,0,0,1,1.87.47,5.94,5.94,0,0,0,5.78,0,4.17,4.17,0,0,1,1.88-.47,6.22,6.22,0,0,1,2.88,5.29,1,1,0,0,0,2,0A8.06,8.06,0,0,0,39.51,46,7.81,7.81,0,0,0,44.3,43l1.88,1a8,8,0,0,1,4.09,5.71L50.82,53a1.72,1.72,0,0,1-1.69,2H14.87l-.29,0A1.72,1.72,0,0,1,13.18,53Z"/></g></svg>