<?xml version="1.0" ?><svg viewBox="0 0 64 64" xmlns="http://www.w3.org/2000/svg"><g data-name="09-Spider" id="_09-Spider"><path d="M28,56a4.941,4.941,0,0,1-1-3,5,5,0,0,1,10,0,4.941,4.941,0,0,1-1,3,5,5,0,0,1-8,0Z" style="fill:#e0b8ff"/><path d="M38.12,46.19a11.252,11.252,0,0,1-12.24,0,13.884,13.884,0,0,1-2.77-2.29,17.342,17.342,0,0,1-2.17-2.86c-.16-.27-.33-.56-.48-.85C22.09,40.85,27.76,43,32,43s9.91-2.15,11.54-2.81c-.15.29-.32.58-.48.85A17.294,17.294,0,0,1,40.9,43.9,14.66,14.66,0,0,1,38.12,46.19Z" style="fill:#b674f2"/><path d="M18.63,24.67a20.037,20.037,0,0,1,.73-2.42C20.86,23.25,26.81,27,32,27s11.14-3.75,12.64-4.75a20.037,20.037,0,0,1,.73,2.42,21.83,21.83,0,0,1,.61,4.34c.01.33.02.66.02.99s-.01.67-.02,1.01C45.56,31.31,38.78,36,32,36s-13.56-4.69-13.98-4.99c-.01-.34-.02-.67-.02-1.01s.01-.66.02-.99A21.83,21.83,0,0,1,18.63,24.67Z" style="fill:#b674f2"/><path d="M40.88,16.09A16.689,16.689,0,0,1,32,19a16.689,16.689,0,0,1-8.88-2.91A12.247,12.247,0,0,1,32,12,12.247,12.247,0,0,1,40.88,16.09Z" style="fill:#b674f2"/><path d="M32,58s-3,2-3,5c0,0-3-1-3-5a1.959,1.959,0,0,1,2-2A5.01,5.01,0,0,0,32,58Z" style="fill:#00a0aa"/><path d="M36,56a1.959,1.959,0,0,1,2,2c0,4-3,5-3,5,0-3-3-5-3-5A5.01,5.01,0,0,0,36,56Z" style="fill:#00a0aa"/><path d="M19.36,22.25a20.037,20.037,0,0,0-.73,2.42L10,17V7a2.015,2.015,0,0,1,2-2,2.006,2.006,0,0,1,2,2v8l5.92,5.92A14.319,14.319,0,0,0,19.36,22.25Z" style="fill:#00a0aa"/><path d="M18.02,31.01c.03.66.09,1.32.17,1.96l-.24.03H9.58L1.57,24.51a2.023,2.023,0,0,1,.08-2.89,2.272,2.272,0,0,1,3.21.09l6.82,7.3h6.34c-.01.33-.02.66-.02.99S18.01,30.67,18.02,31.01Z" style="fill:#00a0aa"/><path d="M20.46,40.19c.15.29.32.58.48.85L15,45H3a2.006,2.006,0,0,1-2-2,1.955,1.955,0,0,1,.59-1.41A1.955,1.955,0,0,1,3,41H14l5.55-2.77A17.553,17.553,0,0,0,20.46,40.19Z" style="fill:#00a0aa"/><path d="M25.88,46.19,20,55H8a2.006,2.006,0,0,1-2-2,2.015,2.015,0,0,1,2-2H18l5-7,.11-.1A13.884,13.884,0,0,0,25.88,46.19Z" style="fill:#00a0aa"/><path d="M44.45,38.23,50,41H61a2.015,2.015,0,0,1,2,2,2.006,2.006,0,0,1-2,2H49l-5.94-3.96c.16-.27.33-.56.48-.85A17.553,17.553,0,0,0,44.45,38.23Z" style="fill:#00a0aa"/><path d="M45.98,31.01c.01-.34.02-.67.02-1.01s-.01-.66-.02-.99h6.34l6.82-7.3a2.272,2.272,0,0,1,3.21-.09,2.023,2.023,0,0,1,.08,2.89L54.42,33H46.05l-.24-.03C45.89,32.33,45.95,31.67,45.98,31.01Z" style="fill:#00a0aa"/><path d="M54,17l-8.63,7.67a20.037,20.037,0,0,0-.73-2.42,14.319,14.319,0,0,0-.56-1.33L50,15V7a2.006,2.006,0,0,1,2-2,2.015,2.015,0,0,1,2,2Z" style="fill:#00a0aa"/><path d="M57.41,51.59A1.955,1.955,0,0,1,58,53a2.006,2.006,0,0,1-2,2H44l-5.88-8.81A14.66,14.66,0,0,0,40.9,43.9l.1.1,5,7H56A1.955,1.955,0,0,1,57.41,51.59Z" style="fill:#00a0aa"/><path d="M19.55,38.23a21.49,21.49,0,0,1-1.36-5.26c-.08-.64-.14-1.3-.17-1.96.42.3,7.2,4.99,13.98,4.99s13.56-4.69,13.98-4.99c-.03.66-.09,1.32-.17,1.96a21.49,21.49,0,0,1-1.36,5.26,17.553,17.553,0,0,1-.91,1.96C41.91,40.85,36.24,43,32,43s-9.91-2.15-11.54-2.81A17.553,17.553,0,0,1,19.55,38.23Z" style="fill:#64e1dc"/><path d="M19.92,20.92a17.441,17.441,0,0,1,3.2-4.83A16.689,16.689,0,0,0,32,19a16.689,16.689,0,0,0,8.88-2.91,17.441,17.441,0,0,1,3.2,4.83,14.319,14.319,0,0,1,.56,1.33C43.14,23.25,37.19,27,32,27s-11.14-3.75-12.64-4.75A14.319,14.319,0,0,1,19.92,20.92Z" style="fill:#64e1dc"/><rect height="2" style="fill:#b674f2" width="2" x="29" y="52"/><rect height="2" style="fill:#b674f2" width="2" x="33" y="52"/><path d="M33,12H31a3.563,3.563,0,0,1,1.293-2.707C32.783,8.8,33,8.562,33,8s-.217-.8-.707-1.293A3.563,3.563,0,0,1,31,4V1h2V4c0,.562.217.8.707,1.293a3.48,3.48,0,0,1,0,5.414C33.217,11.2,33,11.438,33,12Z" style="fill:#ffa426"/><path d="M35.9,43.9a14.66,14.66,0,0,1-2.78,2.29,11.877,11.877,0,0,1-3.62,1.52A11.006,11.006,0,0,0,32,48a11.458,11.458,0,0,0,6.12-1.81A14.66,14.66,0,0,0,40.9,43.9a17.294,17.294,0,0,0,2.16-2.86c.16-.27.33-.56.48-.85a49.469,49.469,0,0,1-6.3,2.055A16.685,16.685,0,0,1,35.9,43.9Z" style="fill:#a260e5"/><path d="M45.98,29.01a21.83,21.83,0,0,0-.61-4.34,20.037,20.037,0,0,0-.73-2.42,37.242,37.242,0,0,1-4.268,2.433,21.773,21.773,0,0,1,.608,4.327c.01.33.02.66.02.99s-.01.67-.02,1.01c-.03.66-.09,1.32-.17,1.96-.042.327-.1.648-.156.969A32.827,32.827,0,0,0,45.98,31.01c.01-.34.02-.67.02-1.01S45.99,29.34,45.98,29.01Z" style="fill:#a260e5"/><path d="M37.364,17.929A17.464,17.464,0,0,0,40.88,16.09,12.247,12.247,0,0,0,32,12a10.992,10.992,0,0,0-2.5.289,12.9,12.9,0,0,1,6.38,3.8A16.307,16.307,0,0,1,37.364,17.929Z" style="fill:#a260e5"/><path d="M39.45,38.23a17.553,17.553,0,0,1-.91,1.96c-.15.29-.32.58-.48.85-.256.42-.535.814-.816,1.2a49.469,49.469,0,0,0,6.3-2.055,17.553,17.553,0,0,0,.91-1.96,21.49,21.49,0,0,0,1.36-5.26c.08-.64.14-1.3.17-1.96a32.827,32.827,0,0,1-5.326,2.929A21.383,21.383,0,0,1,39.45,38.23Z" style="fill:#00c8c8"/><path d="M39.08,20.92a14.319,14.319,0,0,1,.56,1.33,20.037,20.037,0,0,1,.73,2.42l0,.013A37.242,37.242,0,0,0,44.64,22.25a14.319,14.319,0,0,0-.56-1.33,17.441,17.441,0,0,0-3.2-4.83,17.464,17.464,0,0,1-3.516,1.839A18.106,18.106,0,0,1,39.08,20.92Z" style="fill:#00c8c8"/><path d="M45.98,29.01c.01.33.02.66.02.99s-.01.67-.02,1.01c-.03.66-.09,1.32-.17,1.96a21.49,21.49,0,0,1-1.36,5.26,17.553,17.553,0,0,1-.91,1.96c-.15.29-.32.58-.48.85A17.294,17.294,0,0,1,40.9,43.9a14.66,14.66,0,0,1-2.78,2.29,11.252,11.252,0,0,1-12.24,0,13.884,13.884,0,0,1-2.77-2.29,17.342,17.342,0,0,1-2.17-2.86c-.16-.27-.33-.56-.48-.85a17.553,17.553,0,0,1-.91-1.96,21.49,21.49,0,0,1-1.36-5.26c-.08-.64-.14-1.3-.17-1.96-.01-.34-.02-.67-.02-1.01s.01-.66.02-.99a21.83,21.83,0,0,1,.61-4.34,20.037,20.037,0,0,1,.73-2.42,14.319,14.319,0,0,1,.56-1.33,17.441,17.441,0,0,1,3.2-4.83A12.247,12.247,0,0,1,32,12a12.247,12.247,0,0,1,8.88,4.09,17.441,17.441,0,0,1,3.2,4.83,14.319,14.319,0,0,1,.56,1.33,20.037,20.037,0,0,1,.73,2.42A21.83,21.83,0,0,1,45.98,29.01Z" style="fill:none;stroke:#000;stroke-linejoin:round;stroke-width:2px"/><path d="M32,48a5,5,0,0,1,5,5,4.941,4.941,0,0,1-1,3,5,5,0,0,1-8,0,4.941,4.941,0,0,1-1-3A5,5,0,0,1,32,48Z" style="fill:none;stroke:#000;stroke-linejoin:round;stroke-width:2px"/><path d="M32,58s3,2,3,5c0,0,3-1,3-5a1.959,1.959,0,0,0-2-2" style="fill:none;stroke:#000;stroke-linejoin:round;stroke-width:2px"/><path d="M32,58s-3,2-3,5c0,0-3-1-3-5a1.959,1.959,0,0,1,2-2" style="fill:none;stroke:#000;stroke-linejoin:round;stroke-width:2px"/><line style="fill:none;stroke:#000;stroke-linejoin:round;stroke-width:2px" x1="29" x2="31" y1="53" y2="53"/><line style="fill:none;stroke:#000;stroke-linejoin:round;stroke-width:2px" x1="33" x2="35" y1="53" y2="53"/><path d="M38,46l.12.19L44,55H56a2.006,2.006,0,0,0,2-2,2.015,2.015,0,0,0-2-2H46l-5-7" style="fill:none;stroke:#000;stroke-linejoin:round;stroke-width:2px"/><path d="M26,46l-.12.19L20,55H8a2.006,2.006,0,0,1-2-2,2.015,2.015,0,0,1,2-2H18l5-7" style="fill:none;stroke:#000;stroke-linejoin:round;stroke-width:2px"/><path d="M43,41l.06.04L49,45H61a2.006,2.006,0,0,0,2-2,2.015,2.015,0,0,0-2-2H50l-5.55-2.77L44,38" style="fill:none;stroke:#000;stroke-linejoin:round;stroke-width:2px"/><path d="M21,41l-.06.04L15,45H3a2.006,2.006,0,0,1-2-2,1.955,1.955,0,0,1,.59-1.41A1.955,1.955,0,0,1,3,41H14l5.55-2.77L20,38" style="fill:none;stroke:#000;stroke-linejoin:round;stroke-width:2px"/><path d="M17.95,33H9.58L1.57,24.51a2.023,2.023,0,0,1,.08-2.89,2.272,2.272,0,0,1,3.21.09l6.82,7.3H18" style="fill:none;stroke:#000;stroke-linejoin:round;stroke-width:2px"/><path d="M46.05,33h8.37l8.01-8.49a2.023,2.023,0,0,0-.08-2.89,2.272,2.272,0,0,0-3.21.09l-6.82,7.3H46" style="fill:none;stroke:#000;stroke-linejoin:round;stroke-width:2px"/><path d="M44,21l.08-.08L50,15V7a2.006,2.006,0,0,1,2-2,2.015,2.015,0,0,1,2,2V17l-8.63,7.67L45,25" style="fill:none;stroke:#000;stroke-linejoin:round;stroke-width:2px"/><path d="M20,21l-.08-.08L14,15V7a2.006,2.006,0,0,0-2-2,2.015,2.015,0,0,0-2,2V17l8.63,7.67L19,25" style="fill:none;stroke:#000;stroke-linejoin:round;stroke-width:2px"/><path d="M32,12c0-2,2-2,2-4s-2-2-2-4V1" style="fill:none;stroke:#000;stroke-linejoin:round;stroke-width:2px"/><path d="M45,22l-.36.25C43.14,23.25,37.19,27,32,27s-11.14-3.75-12.64-4.75L19,22" style="fill:none;stroke:#000;stroke-linejoin:round;stroke-width:2px"/><path d="M46,31a.031.031,0,0,0-.02.01C45.56,31.31,38.78,36,32,36s-13.56-4.69-13.98-4.99A.031.031,0,0,0,18,31" style="fill:none;stroke:#000;stroke-linejoin:round;stroke-width:2px"/><path d="M44,40s-.16.07-.46.19C41.91,40.85,36.24,43,32,43s-9.91-2.15-11.54-2.81C20.16,40.07,20,40,20,40" style="fill:none;stroke:#000;stroke-linejoin:round;stroke-width:2px"/><path d="M41,16l-.12.09A16.689,16.689,0,0,1,32,19a16.689,16.689,0,0,1-8.88-2.91L23,16" style="fill:none;stroke:#000;stroke-linejoin:round;stroke-width:2px"/></g></svg>