<?xml version="1.0" ?><!DOCTYPE svg  PUBLIC '-//W3C//DTD SVG 1.1//EN'  'http://www.w3.org/Graphics/SVG/1.1/DTD/svg11.dtd'><svg enable-background="new 0 0 512 512" height="512px" id="Ghost_x5F_face" version="1.1" viewBox="0 0 512 512" width="512px" xml:space="preserve" xmlns="http://www.w3.org/2000/svg" xmlns:xlink="http://www.w3.org/1999/xlink"><g><path d="M256.442,404.303c17.888,0,32.44-14.553,32.44-32.439v-9.467c0-4.853,1.475-9.519,4.263-13.49l3.509-4.988   c1.668-2.373,6.517-16.861,14.414-43.063c2.753-9.135,11.736-39.192,11.736-42.459c0-4.476,1.491-8.899,4.201-12.459l12.877-16.933   c10.588-1.905,18.648-11.18,18.648-22.308c0-11.147-8.089-20.435-18.703-22.318c-6.6-12.949-10.086-27.396-10.086-41.938v-3.243   c0-35.811-29.134-64.946-64.945-64.946h-18.126c-35.808,0-64.938,29.132-64.938,64.939v3.866c0,14.447-3.446,28.822-9.967,41.718   c-9.706,2.566-16.883,11.42-16.883,21.922c0,10.425,7.074,19.224,16.674,21.861l12.841,17.417   c2.625,3.562,4.011,7.784,4.011,12.214v0.13c0,3.494,10.107,36.308,12.134,42.85c12.365,39.925,14.481,42.666,15.175,43.564   l3.404,4.413c3.147,4.074,4.882,9.16,4.882,14.321v8.396C224.003,389.75,238.556,404.303,256.442,404.303z M344.176,195.854   c3.257,2.504,5.367,6.427,5.367,10.843c0,7.546-6.139,13.686-13.686,13.686h-15.354c-1.281,0-2.578-0.071-3.853-0.213   c-7.408-0.819-14.624-4.302-20.318-9.805l-21.049-20.341v0.001c-2.459-2.376-3.868-5.699-3.868-9.116   c0-6.99,5.687-12.677,12.716-12.677c0.919,0,1.828,0.106,2.715,0.302c-1.44,3.675-2.206,7.604-2.206,11.598   c0,17.562,14.289,31.85,31.851,31.85C328.02,211.981,338.588,205.668,344.176,195.854z M335.363,193.011   c-4.195,6.125-11.239,9.984-18.873,9.984c-12.606,0-22.863-10.257-22.863-22.863c0-2.244,0.341-4.458,0.979-6.579l8.045,8.62   c6.429,6.888,15.521,10.838,24.941,10.838H335.363z M185.82,193.011c9.422,0,18.514-3.95,24.942-10.838l7.927-8.492   c0.612,2.081,0.938,4.251,0.938,6.451c0,12.606-10.256,22.863-22.863,22.863c-7.626,0-14.673-3.86-18.873-9.984H185.82z    M163.87,206.697c0-4.366,2.063-8.253,5.257-10.761c5.605,9.764,16.151,16.045,27.637,16.045c17.563,0,31.851-14.288,31.851-31.85   c0-3.979-0.758-7.895-2.188-11.557c0.942-0.219,1.91-0.343,2.896-0.343c6.989,0,12.676,5.687,12.676,12.677   c0,3.418-1.41,6.74-3.868,9.115l-21.049,20.341c-5.694,5.503-12.91,8.985-20.319,9.805c-1.273,0.142-2.57,0.213-3.852,0.213   h-15.354C170.009,220.383,163.87,214.243,163.87,206.697z M222.915,339.35c-3.468-5.976-24.474-74.691-25.519-81.251   c-0.019-6.329-2.011-12.363-5.765-17.456l-8.312-11.272h9.59c1.611,0,3.24-0.09,4.841-0.267   c9.375-1.039,18.458-5.397,25.575-12.275l21.049-20.341c4.2-4.059,6.609-9.737,6.609-15.578c0-11.946-9.718-21.664-21.701-21.664   c-5.983,0-11.756,2.508-15.838,6.882l-9.253,9.914c-4.735,5.073-11.432,7.982-18.372,7.982h-3.764   c5.678-12.872,8.663-26.888,8.663-40.966v-3.866c0-30.853,25.1-55.952,55.951-55.952h18.126c30.855,0,55.959,25.104,55.959,55.959   v3.243c0,14.314,3.082,28.545,8.943,41.582h-2.107c-6.939,0-13.636-2.909-18.371-7.982l-9.253-9.914   c-4.082-4.374-9.854-6.882-15.876-6.882c-11.945,0-21.664,9.718-21.664,21.664c0,5.84,2.409,11.518,6.609,15.578l21.05,20.341   c7.118,6.877,16.2,11.236,25.573,12.275c1.604,0.177,3.232,0.267,4.843,0.267h7.812l-8.459,11.125   c-3.85,5.054-5.988,11.324-6.037,17.68c-0.955,6.034-21.43,74.866-24.583,80.67l-3.443,4.896   c-3.857,5.494-5.896,11.945-5.896,18.656v9.467c0,12.932-10.521,23.452-23.453,23.452c-12.932,0-23.452-10.521-23.452-23.452   v-8.396c0-7.14-2.4-14.177-6.755-19.813L222.915,339.35z"/><path d="M241.901,246.189c1.942,1.481,4.21,2.217,6.464,2.217c2.474,0,4.934-0.888,6.925-2.647l0.597-0.525   c0.566-0.502,1.423-0.503,1.993,0l0.596,0.525c3.808,3.362,9.315,3.538,13.391,0.43c4.042-3.083,5.27-8.194,3.048-12.727   c-0.114-0.233-0.237-0.465-0.369-0.692l-7.843-13.583c-2.049-3.55-5.719-5.669-9.817-5.669h-0.001   c-4.099,0-7.771,2.119-9.819,5.669l-7.84,13.58c-0.134,0.23-0.258,0.462-0.376,0.703   C236.632,237.995,237.858,243.105,241.901,246.189z M246.915,237.433c0.028-0.056,0.058-0.111,0.091-0.17l7.842-13.583   c0.612-1.061,1.627-1.175,2.036-1.175c0.407,0,1.423,0.114,2.035,1.175l7.845,13.587c0.031,0.055,0.06,0.11,0.084,0.158   c0.126,0.256,0.46,0.938-0.432,1.617c-0.395,0.302-1.178,0.698-1.992-0.02l-0.595-0.525c-1.979-1.749-4.463-2.623-6.945-2.623   c-2.483,0-4.966,0.874-6.946,2.622l-0.596,0.526c-0.813,0.718-1.596,0.321-1.99,0.021   C246.46,238.362,246.793,237.681,246.915,237.433z"/><path d="M234.69,331.666c2.009,6.798,3.028,13.838,3.028,20.925v15.614c0,10.15,8.256,18.406,18.405,18.406   s18.406-8.256,18.406-18.406V354.45c0-8.252,1.371-16.388,4.073-24.183c3.033-8.746,4.571-17.872,4.571-27.127v-16.361   c0-14.521-11.815-26.337-26.337-26.337s-26.337,11.815-26.337,26.337v18.734c0,7.953,1.144,15.85,3.396,23.473L234.69,331.666z    M239.488,286.779c0-9.566,7.783-17.35,17.35-17.35s17.35,7.783,17.35,17.35v16.361c0,8.25-1.371,16.386-4.074,24.183   c-3.032,8.744-4.569,17.871-4.569,27.127v13.755c0,5.194-4.226,9.42-9.42,9.42c-5.193,0-9.419-4.226-9.419-9.42v-15.614   c0-7.95-1.143-15.847-3.396-23.473l-0.792-2.681c-2.009-6.794-3.028-13.834-3.028-20.924V286.779z"/><path d="M174.164,358.844l5.462-7.138c-31.149-23.838-49.015-59.977-49.015-99.149v-76.255   c0-64.152,52.191-116.344,116.344-116.344h16.859c64.152,0,116.344,52.191,116.344,116.344v76.255   c0,36.588-17.945,75.566-45.719,99.303l5.838,6.831c29.687-25.37,48.869-67.03,48.869-106.134v-76.255   c0-69.108-56.224-125.331-125.332-125.331h-16.859c-69.107,0-125.331,56.223-125.331,125.331v76.255   C121.624,294.551,140.774,333.291,174.164,358.844z"/><path d="M387.203,410.137l-42.341-29.186c-9.009-6.209-14.387-16.449-14.387-27.39v-1.831c0-8.225,3.081-16.18,8.678-22.398   c20.069-22.305,32.053-52.907,32.053-81.861V181.8c0-23.896-7.613-46.563-22.017-65.551l-7.16,5.431   c13.207,17.413,20.189,38.202,20.189,60.12v65.671c0,26.795-11.12,55.15-29.746,75.85c-7.083,7.872-10.984,17.961-10.984,28.41   v1.831c0,13.897,6.831,26.902,18.273,34.789l42.34,29.187c1.94,1.338,5.125,3.896,4.641,6.008   c-0.343,1.502-3.984,9.496-42.025,19.4c-19.98,5.202-39.776,8.38-41.61,8.67c-25.684,2.305-39.677-5.07-54.494-12.876   c-18.538-9.765-37.706-19.86-78.782-12.267c-39.004,7.211-43.924,0.576-44.356-0.203c-1.074-1.941,1.365-6.393,3.606-9.002   l44.119-28.932c11.948-7.836,19.082-21.045,19.082-35.384c0-11.249-4.478-21.941-12.609-30.108   c-20.069-20.159-31.121-46.927-31.121-75.373V181.8c0-21.394,6.681-41.78,19.32-58.956l-7.239-5.326   c-13.783,18.73-21.068,40.958-21.068,64.282v65.671c0,30.839,11.982,59.859,33.74,81.714c6.442,6.472,9.99,14.912,9.99,23.817   c0,11.25-5.616,21.649-15.023,27.818l-45.076,29.561l-0.373,0.402c-1.036,1.118-9.981,11.172-5.224,19.814   c5.002,9.084,22.117,10.582,53.866,4.712c38.011-7.028,54.987,1.915,72.96,11.382c13.413,7.064,27.22,14.34,49.455,14.338   c3.21,0,6.6-0.151,10.186-0.478l0.279-0.034c0.211-0.032,21.27-3.316,42.576-8.859c40.609-10.564,47.177-19.961,48.584-26.108   C396.378,421.731,395.646,415.959,387.203,410.137z"/></g></svg>