<?xml version="1.0" ?><svg viewBox="0 0 64 64" xmlns="http://www.w3.org/2000/svg"><defs><style>.cls-1{fill:#e0e9ee;}.cls-2{fill:#d0e1e8;}.cls-3{fill:#f0f4f7;}.cls-4{fill:#efc89d;}.cls-5{fill:#748a95;}.cls-6{fill:#ebb87f;}.cls-7{fill:#172335;}</style></defs><g id="Mummy"><path class="cls-1" d="M37.17,36.91v5.71l7.73,4.52c2.72,1.58,5,3.85,5.57,6.94A1.61,1.61,0,0,1,48.89,56H15.11a1.61,1.61,0,0,1-1.58-1.92c.61-3.09,2.85-5.36,5.57-6.94l7.73-4.52V36.91Z" id="path123162-62-1"/><path class="cls-2" d="M33.17,36.91v7.71l7.73,4.52C43.59,50.71,45.82,53,46.45,56h2.44a1.61,1.61,0,0,0,1.58-1.92c-.61-3.08-2.85-5.36-5.57-6.94l-7.73-4.52V36.91Z" id="path22468"/><path class="cls-3" d="M20.84,33.1c2.35,4.69,6.47,8.53,11.16,8.53,5.24,0,9.76-4.79,11.92-10.2a26.25,26.25,0,0,0,1.21-7.71l-1.9-.64,1.94-.63c0-.45,0-.87,0-1.26a13.18,13.18,0,0,0-26.3-1.3L22,26.49Z" id="path4581"/><path class="cls-1" d="M32,8a13,13,0,0,0-2,.15,13.19,13.19,0,0,1,11.17,13c0,.39,0,.81,0,1.26s0,.83,0,1.27a26.25,26.25,0,0,1-1.21,7.71c-1.87,4.7-5.54,8.94-9.91,10a8.8,8.8,0,0,0,2,.23c5.24,0,9.76-4.79,11.92-10.2a26.25,26.25,0,0,0,1.21-7.71l-1.9-.64,1.94-.63c0-.45,0-.87,0-1.26A13.18,13.18,0,0,0,32,8Z" id="path12617"/><path class="cls-4" d="M18.88,19.89c0,.42-.07.86-.07,1.3,0,2.87.21,7.58,1.27,10.24.23.57.48,1.12.76,1.67l24.29-9.38c0-.44,0-.86,0-1.27Z" id="path15196-0"/><path class="cls-5" d="M30.33,24H23.46a3.44,3.44,0,0,0,6.87,0Z" id="path19895-3"/><path class="cls-6" d="M41.17,22.06v.39c0,.41,0,.83,0,1.27s-.05,1-.09,1.58l4.09-1.58c0-.44,0-.86,0-1.27Z" id="path12619"/><path class="cls-7" d="M18.59,46.28c-3.35,2-5.45,4.59-6,7.61a2.6,2.6,0,0,0,.54,2.16,3,3,0,0,0,2,1H48.89a2.6,2.6,0,0,0,2.56-3.12c-.65-3.31-3.13-5.9-6-7.6l-7.24-4.23V40.57a19.85,19.85,0,0,0,6.68-8.77h0C46,29,46.18,24.21,46.18,21.18a14.18,14.18,0,0,0-28.36,0c0,2.72.17,7.71,1.33,10.62a19.85,19.85,0,0,0,6.68,8.77v1.48Zm4.82-.5,2.3-1.35,2.15,1.35L26.71,47ZM21.15,47.1l22,7.9H37.26l-18-6.77C20.26,47.6,20.13,47.7,21.15,47.1ZM17.39,55l3.7-3.94,3.08,1.16L20.37,55Zm9-1.94L31.57,55H23.76Zm-11.9,1.21a8.29,8.29,0,0,1,2.82-4.62l1.74.65-4.31,4.58a.42.42,0,0,1-.12-.1A.6.6,0,0,1,14.51,54.27Zm35,0a.57.57,0,0,1-.5.7l-9.07-3.26,7.24-1.62A8.07,8.07,0,0,1,49.49,54.27Zm-4.33-5.78-8.75,2-2.64-1L42,46.6,44.4,48C44.67,48.16,44.91,48.32,45.16,48.49Zm-5.43-3.21-8.94,3.15-2-.72,5.11-5.27a10.82,10.82,0,0,0,2.28-.73v.91a1,1,0,0,0,.49.87Zm-14.1-7.4,4.31-1.79,5.33,3.83a8.15,8.15,0,0,1-3.27.71A9.62,9.62,0,0,1,25.63,37.88Zm-3.38-4.26,8.53-3.29,3.27,1.9-9.91,4.1A18.24,18.24,0,0,1,22.25,33.62ZM21,15.89c2.74.24,14.55,1.7,22.88,2.76a11.89,11.89,0,0,1,.26,2.7L20,19A12.13,12.13,0,0,1,21,15.89Zm20.44-2.34a12.07,12.07,0,0,1,1.78,3L33.14,15.27l-1-1.83ZM43.33,30l-5-2.59,5.7-2.2A26.13,26.13,0,0,1,43.33,30Zm-7.47-1.63,6.78,3.52a21.06,21.06,0,0,1-1.23,2.29l-8.23-4.77Zm1.33,10.47-5.07-3.65,4.11-1.7,4,2.34A14.82,14.82,0,0,1,37.19,38.84Zm2.2-27.32L31,11.43,29.78,9.21A12.47,12.47,0,0,1,32,9,12.12,12.12,0,0,1,39.39,11.52ZM27.8,9.76,30.69,15c-4.34-.54-6.94-.84-8.51-1A12.3,12.3,0,0,1,27.8,9.76ZM19.83,21l23.63,2.31L21.34,31.83c-.12-.25-.23-.51-.33-.77-1.08-2.7-1.19-7.81-1.19-9.88A1.41,1.41,0,0,1,19.83,21ZM31,42.57l-1.68,1.74L27.6,43.25a1,1,0,0,0,.23-.63v-.91A10.11,10.11,0,0,0,31,42.57Z"/><path class="cls-7" d="M26.89,28.36h0A4.44,4.44,0,0,0,31.33,24a1,1,0,0,0-.29-.71,1,1,0,0,0-.71-.29H23.46a1,1,0,0,0-1,1A4.44,4.44,0,0,0,26.89,28.36ZM29.11,25a2.45,2.45,0,0,1-2.21,1.41h0A2.44,2.44,0,0,1,24.68,25Z"/></g></svg>