<?xml version="1.0" ?><svg viewBox="0 0 64 64" xmlns="http://www.w3.org/2000/svg"><defs><style>.cls-1{fill:#748a95;}.cls-2{fill:#617880;}.cls-3{fill:#e0e9ee;}.cls-4{fill:#d0e1e8;}.cls-5{fill:#f0f4f7;}.cls-6{fill:#172335;}</style></defs><g id="Nun"><path class="cls-1" d="M16.29,50.48V23.71a15.71,15.71,0,0,1,31.42,0V50.48Z" id="path33355-8"/><path class="cls-2" d="M43,50.28V25.34H21V50.28Z" id="path32699-0"/><path class="cls-1" d="M22.37,46.09,19.78,47.6c-2.58,1.51-4.7,3.66-5.28,6.58A1.52,1.52,0,0,0,16,56H48a1.52,1.52,0,0,0,1.49-1.82c-.58-2.92-2.7-5.07-5.28-6.58l-2.59-1.51Z" id="path123162-7-9"/><path class="cls-2" d="M35.73,46.09l2.83,1.65,2.59,1.52c2.58,1.5,4.7,3.65,5.28,6.57l0,.17H48a1.52,1.52,0,0,0,1.49-1.82c-.58-2.92-2.7-5.07-5.28-6.58l-2.59-1.51Z" id="path264582"/><path class="cls-3" d="M27.1,38.53v4.79l-4.73,2.77A20.5,20.5,0,0,0,32,48.34a20.5,20.5,0,0,0,9.63-2.25L36.9,43.32V38.53Z" id="path36708-9"/><path class="cls-4" d="M33.83,38.53V45l4.3,2.51a18,18,0,0,0,3.5-1.4L36.9,43.32V38.53Z" id="path264584"/><path class="cls-5" d="M32,16.41c-5.59,0-10.9,6.07-10.9,12a19.92,19.92,0,0,0,1,5.48c1.8,4.51,5.57,8.51,9.94,8.51s8.14-4,9.94-8.51a19.92,19.92,0,0,0,1-5.48C42.9,22.6,37.59,16.41,32,16.41Z" id="path25222-7-2-6-4"/><path class="cls-3" d="M32,14.34a11,11,0,0,0-11,11c0,.87,0,1.94.09,3.06a11,11,0,0,1,21.8,0c.07-1.12.09-2.19.09-3.06A11,11,0,0,0,32,14.34Z" id="path32781-6"/><path class="cls-6" d="M26.34,30.51l-2.21-.59a1,1,0,0,0-1.22.7,1,1,0,0,0,.71,1.23l2.21.59a1.48,1.48,0,0,1,1.09,1.43V35a1,1,0,0,0,2,0V33.87A3.49,3.49,0,0,0,26.34,30.51Z"/><path class="cls-6" d="M36.08,36a1,1,0,0,0,1-1V33.87a1.48,1.48,0,0,1,1.09-1.43l2.21-.59a1,1,0,0,0,.71-1.23,1,1,0,0,0-1.22-.7l-2.21.59a3.49,3.49,0,0,0-2.58,3.36V35A1,1,0,0,0,36.08,36Z"/><path class="cls-6" d="M32,7A16.73,16.73,0,0,0,15.29,23.71V50.15A9.21,9.21,0,0,0,13.52,54,2.51,2.51,0,0,0,14,56.08,2.54,2.54,0,0,0,16,57H48a2.54,2.54,0,0,0,2-.92A2.51,2.51,0,0,0,50.48,54a9.21,9.21,0,0,0-1.77-3.84V23.71A16.73,16.73,0,0,0,32,7Zm0,2A14.73,14.73,0,0,1,46.71,23.71v24.4a15.69,15.69,0,0,0-2-1.37L44,46.31v-21a12,12,0,1,0-24,0v21l-.74.43a15.69,15.69,0,0,0-2,1.37V23.71A14.73,14.73,0,0,1,32,9Zm0,38.34A20.34,20.34,0,0,1,24.54,46l3.07-1.79a1,1,0,0,0,.49-.87v-.9a8.33,8.33,0,0,0,7.8,0v.9a1,1,0,0,0,.49.87L39.46,46A20.34,20.34,0,0,1,32,47.34ZM23,33.51a18.18,18.18,0,0,1-.88-5.06,10,10,0,0,1,19.78,0A18.18,18.18,0,0,1,41,33.51c-1.56,3.92-4.95,7.88-9,7.88S24.55,37.43,23,33.51ZM37.9,41.15a16.38,16.38,0,0,0,4.09-5v9L37.9,42.75ZM32,17.84a12,12,0,0,0-9.63,4.88,10,10,0,0,1,19.26,0A12,12,0,0,0,32,17.84ZM22,36.11a16.3,16.3,0,0,0,4.09,5v1.6L22,45.14Zm-6.42,18.7a.53.53,0,0,1-.11-.44c.46-2.32,2.08-4.31,4.8-5.9l2.12-1.24A21.78,21.78,0,0,0,31,49.3v1.54H29.67a1,1,0,0,0,0,2H31V55H16A.52.52,0,0,1,15.59,54.81Zm32.82,0A.52.52,0,0,1,48,55H33V52.84h1.33a1,1,0,0,0,0-2H33V49.3a21.78,21.78,0,0,0,8.6-2.07l2.12,1.24c2.72,1.59,4.34,3.58,4.8,5.9A.53.53,0,0,1,48.41,54.81Z"/></g></svg>